<?xml version="1.0" encoding="UTF-8" standalone="no" ?>
<!DOCTYPE svg PUBLIC "-//W3C//DTD SVG 1.1//EN" "http://www.w3.org/Graphics/SVG/1.1/DTD/svg11.dtd">
<svg xmlns="http://www.w3.org/2000/svg"
  xmlns:xlink="http://www.w3.org/1999/xlink" version="1.1" width="1080" height="1080" viewBox="0 0 1080 1080" xml:space="preserve">
  <desc>Created with Fabric.js 5.2.4</desc>
  <defs>
  </defs>
  <rect x="0" y="0" width="100%" height="100%" fill="transparent"></rect>
  <g transform="matrix(1 0 0 1 540 540)" id="d77e55e8-e38e-4118-8ba0-d64efc187c3a">
    <rect style="stroke: none; stroke-width: 1; stroke-dasharray: none; stroke-linecap: butt; stroke-dashoffset: 0; stroke-linejoin: miter; stroke-miterlimit: 4; fill: rgb(136,136,136); fill-rule: nonzero; opacity: 1;" vector-effect="non-scaling-stroke" x="-540" y="-540" rx="160" ry="160" width="1080" height="1080" />
  </g>
  <g transform="matrix(1 0 0 1 540 540)" id="d0efa959-43ca-477f-82e0-a05cff6d8bf7">
  </g>
  <g transform="matrix(3.45 0 0 3.45 540.27 537.6)" id="8992f4b9-7ca1-415f-adbc-861424645560">
    <path style="stroke: rgb(0,0,0); stroke-width: 0; stroke-dasharray: none; stroke-linecap: butt; stroke-dashoffset: 0; stroke-linejoin: miter; stroke-miterlimit: 4; fill: rgb(238,238,238); fill-rule: nonzero; opacity: 1;" vector-effect="non-scaling-stroke" transform=" translate(-116.08, -116.08)" d="M 203.791 99.628 L 49.307 2.294 C 44.74 -0.4249999999999998 39.069 0.028000000000000025 34.786 0.028000000000000025 C 17.654 0.028000000000000025 17.73 13.255 17.73 16.605999999999998 L 17.73 215.546 C 17.73 218.379 17.655 232.125 34.786 232.125 C 39.069 232.125 44.741 232.576 49.307 229.858 L 203.79000000000002 132.525 C 216.47000000000003 124.98 214.27900000000002 116.07600000000001 214.27900000000002 116.07600000000001 C 214.27900000000002 116.07600000000001 216.471 107.172 203.791 99.628 z" stroke-linecap="round" />
  </g>
</svg>